<svg xmlns="http://www.w3.org/2000/svg" viewBox="0 0 24 24">
  <path d="M19.56,21.63H4.44a1.33,1.33,0,0,1-1.33-1.33V3.7A1.33,1.33,0,0,1,4.44,2.37H19.56A1.33,1.33,0,0,1,20.89,3.7v16.6A1.33,1.33,0,0,1,19.56,21.63ZM4.44,4.7a.67.67,0,0,0-.67.67V19.3a.67.67,0,0,0,.67.67H19.56a.67.67,0,0,0,.67-.67V5.37a.67.67,0,0,0-.67-.67Z"  fill="white"/>
  <path d="M9.44,9.61h5.11a.5.5,0,0,0,.5-.5V3.44a.5.5,0,0,0-.5-.5H9.44a.5.5,0,0,0-.5.5v5.67A.5.5,0,0,0,9.44,9.61Zm-.5-6.11h6.11v5.67H8.94Z" fill="orange"/>
  <path d="M9.44,14.78h5.11a.5.5,0,0,0,.5-.5V8.61a.5.5,0,0,0-.5-.5H9.44a.5.5,0,0,0-.5.5v5.67A.5.5,0,0,0,9.44,14.78Zm-.5-6.11h6.11v5.67H8.94Z" fill="yellow"/>
  <path d="M14.11,9.61h5.11a.5.5,0,0,0,.5-.5V3.44a.5.5,0,0,0-.5-.5H14.11a.5.5,0,0,0-.5.5v5.67A.5.5,0,0,0,14.11,9.61Zm-.5-6.11h6.11v5.67H13.61Z" fill="blue"/>
  <path d="M14.11,14.78h5.11a.5.5,0,0,0,.5-.5V8.61a.5.5,0,0,0-.5-.5H14.11a.5.5,0,0,0-.5.5v5.67A.5.5,0,0,0,14.11,14.78Zm-.5-6.11h6.11v5.67H13.61Z" fill="grey"/>
</svg>

